<svg width="70" height="70" viewBox="0 0 70 70" fill="none" xmlns="http://www.w3.org/2000/svg">
<path d="M40.8484 11.4249C41.9572 10.2729 43.906 10.9061 44.1259 12.4898L45.0121 18.8718C45.1615 19.9481 46.1753 20.6847 47.2451 20.4942L53.5886 19.3649C55.1627 19.0846 56.3672 20.7423 55.6142 22.1528L52.5799 27.8369C52.0682 28.7954 52.4554 29.9873 53.4328 30.462L59.2286 33.2769C60.6669 33.9755 60.6669 36.0245 59.2286 36.7231L53.4328 39.538C52.4554 40.0127 52.0682 41.2046 52.5799 42.1631L55.6142 47.8472C56.3672 49.2577 55.1628 50.9154 53.5886 50.6351L47.2451 49.5058C46.1753 49.3153 45.1615 50.0519 45.0121 51.1282L44.1259 57.5102C43.906 59.0939 41.9572 59.7271 40.8484 58.5751L36.3803 53.9329C35.6267 53.15 34.3736 53.15 33.62 53.9329L29.1518 58.5751C28.0431 59.7271 26.0943 59.0939 25.8744 57.5102L24.9882 51.1282C24.8388 50.0519 23.8249 49.3153 22.7551 49.5058L16.4117 50.6351C14.8375 50.9154 13.6331 49.2577 14.3861 47.8472L17.4204 42.1631C17.9321 41.2046 17.5449 40.0127 16.5674 39.538L10.7716 36.7231C9.33341 36.0245 9.33341 33.9755 10.7716 33.2769L16.5674 30.462C17.5449 29.9873 17.9321 28.7954 17.4204 27.8369L14.3861 22.1528C13.6331 20.7423 14.8375 19.0846 16.4117 19.3649L22.7551 20.4942C23.8249 20.6847 24.8388 19.9481 24.9882 18.8718L25.8744 12.4898C26.0943 10.9061 28.0431 10.2729 29.1518 11.4249L33.62 16.0671C34.3736 16.85 35.6267 16.85 36.3803 16.0671L40.8484 11.4249Z" fill="#FD6F70"/>
<ellipse cx="29.0803" cy="29.5621" rx="1.34161" ry="1.87033" transform="rotate(11.8642 29.0803 29.5621)" fill="#4F3D3D"/>
<ellipse cx="1.34161" cy="1.87033" rx="1.34161" ry="1.87033" transform="matrix(-0.978638 0.205593 0.205593 0.978638 41.6025 27.4559)" fill="#4F3D3D"/>
<path d="M31.2476 34.7988C31.7628 34.1547 33.2572 32.8665 35.1122 32.8665C36.9673 32.8665 38.4616 34.1547 38.9769 34.7988" stroke="#4F3D3D" stroke-width="1.54587" stroke-linecap="round"/>
</svg>
