<svg width="22" height="22" viewBox="0 0 22 22" fill="none" xmlns="http://www.w3.org/2000/svg">
<path d="M14.9091 17.9699L8.569 11.528C8.42995 11.3874 8.35196 11.1977 8.35196 11C8.35196 10.8023 8.42995 10.6125 8.569 10.472L14.9078 4.03011C15.0467 3.88869 15.1246 3.69834 15.1246 3.50005C15.1246 3.30177 15.0467 3.11142 14.9078 2.96999C14.8399 2.90035 14.7587 2.845 14.6691 2.80721C14.5795 2.76942 14.4832 2.74995 14.3859 2.74995C14.2887 2.74995 14.1924 2.76942 14.1028 2.80721C14.0132 2.845 13.932 2.90035 13.8641 2.96999L7.52538 9.41049C7.10885 9.83471 6.87549 10.4055 6.87549 11C6.87549 11.5945 7.10885 12.1653 7.52538 12.5895L13.8641 19.03C13.932 19.0998 14.0133 19.1554 14.103 19.1933C14.1928 19.2312 14.2892 19.2507 14.3866 19.2507C14.4841 19.2507 14.5805 19.2312 14.6702 19.1933C14.76 19.1554 14.8412 19.0998 14.9091 19.03C15.0481 18.8886 15.126 18.6982 15.126 18.4999C15.126 18.3016 15.0481 18.1113 14.9091 17.9699Z" fill="#4F3D3D"/>
</svg>
