<svg width="26" height="26" viewBox="0 0 26 26" fill="none" xmlns="http://www.w3.org/2000/svg">
<path d="M20.5834 4.33329H18.4167V3.24996C18.4167 2.96264 18.3026 2.68709 18.0994 2.48393C17.8963 2.28076 17.6207 2.16663 17.3334 2.16663C17.0461 2.16663 16.7705 2.28076 16.5674 2.48393C16.3642 2.68709 16.2501 2.96264 16.2501 3.24996V4.33329H9.75008V3.24996C9.75008 2.96264 9.63594 2.68709 9.43278 2.48393C9.22962 2.28076 8.95407 2.16663 8.66675 2.16663C8.37943 2.16663 8.10388 2.28076 7.90072 2.48393C7.69755 2.68709 7.58341 2.96264 7.58341 3.24996V4.33329H5.41675C4.55479 4.33329 3.72814 4.6757 3.11865 5.2852C2.50916 5.89469 2.16675 6.72134 2.16675 7.58329V20.5833C2.16675 21.4452 2.50916 22.2719 3.11865 22.8814C3.72814 23.4909 4.55479 23.8333 5.41675 23.8333H20.5834C21.4454 23.8333 22.272 23.4909 22.8815 22.8814C23.491 22.2719 23.8334 21.4452 23.8334 20.5833V7.58329C23.8334 6.72134 23.491 5.89469 22.8815 5.2852C22.272 4.6757 21.4454 4.33329 20.5834 4.33329ZM21.6667 20.5833C21.6667 20.8706 21.5526 21.1462 21.3494 21.3493C21.1463 21.5525 20.8707 21.6666 20.5834 21.6666H5.41675C5.12943 21.6666 4.85388 21.5525 4.65072 21.3493C4.44755 21.1462 4.33341 20.8706 4.33341 20.5833V13H21.6667V20.5833ZM21.6667 10.8333H4.33341V7.58329C4.33341 7.29597 4.44755 7.02042 4.65072 6.81726C4.85388 6.6141 5.12943 6.49996 5.41675 6.49996H7.58341V7.58329C7.58341 7.87061 7.69755 8.14616 7.90072 8.34932C8.10388 8.55249 8.37943 8.66663 8.66675 8.66663C8.95407 8.66663 9.22962 8.55249 9.43278 8.34932C9.63594 8.14616 9.75008 7.87061 9.75008 7.58329V6.49996H16.2501V7.58329C16.2501 7.87061 16.3642 8.14616 16.5674 8.34932C16.7705 8.55249 17.0461 8.66663 17.3334 8.66663C17.6207 8.66663 17.8963 8.55249 18.0994 8.34932C18.3026 8.14616 18.4167 7.87061 18.4167 7.58329V6.49996H20.5834C20.8707 6.49996 21.1463 6.6141 21.3494 6.81726C21.5526 7.02042 21.6667 7.29597 21.6667 7.58329V10.8333Z" fill="#4F3D3D"/>
</svg>
