<svg width="28" height="28" viewBox="0 0 28 28" fill="none" xmlns="http://www.w3.org/2000/svg">
<path d="M14.0002 25.6667C14.9335 25.6667 15.8668 25.55 16.6835 25.3167C16.2168 24.7333 15.7502 24.0333 15.5168 23.2167C15.0502 23.3333 14.4668 23.3333 14.0002 23.3333C8.86683 23.3333 4.66683 19.1333 4.66683 14C4.66683 8.86667 8.86683 4.66667 14.0002 4.66667C14.9335 4.66667 15.7502 4.78334 16.5668 5.01667L18.4335 3.15C17.0335 2.68334 15.5168 2.33334 14.0002 2.33334C7.5835 2.33334 2.3335 7.58334 2.3335 14C2.3335 20.4167 7.5835 25.6667 14.0002 25.6667ZM7.5835 13.4167L9.21683 11.7833L12.8335 15.4L22.8668 5.36667L24.5002 7L12.8335 18.6667L7.5835 13.4167ZM22.1668 16.3333L20.6968 19.5417L17.5002 21L20.6968 22.47L22.1668 25.6667L23.6252 22.47L26.8335 21L23.6252 19.5417L22.1668 16.3333Z" fill="#4F3D3D"/>
</svg>
