<svg width="42" height="46" viewBox="0 0 42 46" fill="none" xmlns="http://www.w3.org/2000/svg">
<path fill-rule="evenodd" clip-rule="evenodd" d="M36.8807 22.6674C37.0669 22.7564 37.2469 22.8474 37.4108 22.9425V22.9385C38.7969 23.7385 39.9147 24.9317 40.6227 26.367C41.3308 27.8023 41.5973 29.4154 41.3885 31.0022C41.1798 32.589 40.5052 34.0782 39.45 35.2816C38.3948 36.485 37.0065 37.3485 35.4606 37.7628C34.7731 37.9472 34.0645 38.041 33.3527 38.042C31.9361 38.0418 30.5446 37.6678 29.3189 36.9577C29.155 36.8626 28.9851 36.7513 28.8172 36.636C28.8334 36.8403 28.8435 37.0426 28.8435 37.2328C28.8435 39.3789 27.9909 41.4371 26.4734 42.9546C24.9559 44.4721 22.8977 45.3247 20.7516 45.3247C18.6055 45.3247 16.5473 44.4721 15.0298 42.9546C13.5122 41.4371 12.6597 39.3789 12.6597 37.2328C12.6597 37.0406 12.6698 36.8383 12.686 36.636C12.5181 36.7554 12.3482 36.8626 12.1843 36.9577C11.2637 37.4974 10.2454 37.8497 9.18809 37.9942C8.13077 38.1388 7.05529 38.0728 6.02359 37.8C4.99188 37.5273 4.02431 37.0531 3.17659 36.4049C2.32887 35.7566 1.61775 34.9471 1.08416 34.023C0.550568 33.0988 0.205051 32.0782 0.0675003 31.0199C-0.0700505 29.9617 0.00308179 28.8867 0.282687 27.8568C0.562292 26.8269 1.04285 25.8625 1.69668 25.0191C2.35052 24.1757 3.16473 23.47 4.09243 22.9425C4.25629 22.8474 4.43633 22.7564 4.62245 22.6674C4.43633 22.5784 4.25629 22.4874 4.09243 22.3923C3.16473 21.8648 2.35052 21.1591 1.69668 20.3157C1.04285 19.4723 0.562292 18.5079 0.282687 17.478C0.00308179 16.4481 -0.0700505 15.3731 0.0675003 14.3149C0.205051 13.2566 0.550568 12.236 1.08416 11.3118C1.61775 10.3876 2.32887 9.57814 3.17659 8.92991C4.02431 8.28168 4.99188 7.80754 6.02359 7.53477C7.05529 7.262 8.13077 7.196 9.18809 7.34057C10.2454 7.48514 11.2637 7.83742 12.1843 8.37712C12.3482 8.4722 12.5181 8.58347 12.686 8.69878C12.6597 8.48435 12.6597 8.28206 12.6597 8.09191V8.09189C12.6597 5.94578 13.5122 3.88758 15.0298 2.37006C16.5473 0.852536 18.6055 0 20.7516 0C22.8977 0 24.9559 0.852536 26.4734 2.37006C27.9909 3.88758 28.8435 5.94578 28.8435 8.09189C28.8435 8.29418 28.8334 8.49648 28.8172 8.69878C28.9851 8.57942 29.155 8.4722 29.3189 8.37712C30.2395 7.83742 31.2578 7.48514 32.3151 7.34057C33.3724 7.196 34.4479 7.262 35.4796 7.53477C36.5113 7.80754 37.4789 8.28168 38.3266 8.92991C39.1743 9.57814 39.8854 10.3876 40.419 11.3118C40.9526 12.236 41.2981 13.2566 41.4357 14.3149C41.5732 15.3731 41.5001 16.4481 41.2205 17.478C40.9409 18.5079 40.4603 19.4723 39.8065 20.3157C39.1527 21.1591 38.3385 21.8648 37.4108 22.3923C37.2469 22.4874 37.0669 22.5784 36.8807 22.6674Z" fill="#FFD539"/>
<path d="M27.7611 23.0209C28.4916 21.2952 28.4514 18.1199 25.6902 19.2244C22.9291 20.3288 17.4069 19.6845 14.9909 19.2244C14.2985 19.1042 13.782 19.8646 13.6103 20.2598C13.3802 20.835 13.3054 21.9855 13.6103 23.0209C13.9619 24.2146 16.3714 26.8175 21.2034 26.8175C25.069 26.8175 27.1858 24.2864 27.7611 23.0209Z" fill="#4F3D3D" stroke="#4F3D3D" stroke-width="0.690282"/>
<ellipse cx="25.8893" cy="16.0959" rx="1.23828" ry="1.64068" transform="rotate(-32.385 25.8893 16.0959)" fill="#4F3D3D"/>
<ellipse cx="15.6864" cy="16.0551" rx="1.23828" ry="1.60348" transform="rotate(-150 15.6864 16.0551)" fill="#4F3D3D"/>
</svg>
