<svg width="46" height="46" viewBox="0 0 46 46" fill="none" xmlns="http://www.w3.org/2000/svg">
<path d="M1.47458 25.5404C0.562104 23.96 0.562105 22.0128 1.47458 20.4324L10.0186 5.63364C10.9311 4.05319 12.6174 3.0796 14.4423 3.0796L31.5304 3.0796C33.3554 3.0796 35.0417 4.05319 35.9542 5.63364L44.4982 20.4323C45.4107 22.0128 45.4107 23.96 44.4982 25.5404L35.9542 40.3391C35.0417 41.9196 33.3554 42.8932 31.5304 42.8932L14.4423 42.8932C12.6174 42.8932 10.9311 41.9196 10.0186 40.3391L1.47458 25.5404Z" fill="#EF44A3"/>
<ellipse cx="17.8507" cy="17.4888" rx="1.40163" ry="1.8267" transform="rotate(17.5702 17.8507 17.4888)" fill="#4F3D3D"/>
<ellipse cx="1.40163" cy="1.8267" rx="1.40163" ry="1.8267" transform="matrix(-0.953348 0.301875 0.301875 0.953348 29.3301 15.3242)" fill="#4F3D3D"/>
<path d="M20.1133 21.7094H26.4984" stroke="#4F3D3D" stroke-width="1.59628" stroke-linecap="round"/>
</svg>
