<svg width="17" height="17" viewBox="0 0 17 17" fill="none" xmlns="http://www.w3.org/2000/svg">
<path d="M12.394 12.394L16 16M1 7.6C1 9.35043 1.69536 11.0292 2.9331 12.2669C4.17084 13.5046 5.84957 14.2 7.6 14.2C9.35043 14.2 11.0292 13.5046 12.2669 12.2669C13.5046 11.0292 14.2 9.35043 14.2 7.6C14.2 5.84957 13.5046 4.17084 12.2669 2.9331C11.0292 1.69536 9.35043 1 7.6 1C5.84957 1 4.17084 1.69536 2.9331 2.9331C1.69536 4.17084 1 5.84957 1 7.6Z" stroke="black" stroke-linecap="round" stroke-linejoin="round"/>
<path d="M3.41943 7.78714H5.25543L6.49383 5.42554L8.36943 9.77554L9.98103 7.78714H11.781" stroke="black" stroke-linecap="round" stroke-linejoin="round"/>
</svg>
