<svg width="41" height="41" viewBox="0 0 41 41" fill="none" xmlns="http://www.w3.org/2000/svg">
<path d="M0 19.4903V32.863C0 35.6636 -1.49854e-07 37.0639 0.548081 38.1366C1.0308 39.0768 1.79761 39.842 2.74544 40.3196C3.81897 40.8647 5.22689 40.8647 8.03769 40.8647H32.1885C34.9993 40.8647 36.4047 40.8647 37.4782 40.3196C38.4249 39.8412 39.1949 39.077 39.6781 38.1366C40.2262 37.0664 40.2262 35.6686 40.2262 32.873V19.4903C40.2262 18.155 40.2262 17.4874 40.0628 16.8647C39.9181 16.3143 39.6801 15.7926 39.3588 15.3219C38.9942 14.7893 38.4914 14.3467 37.4782 13.469L25.4104 2.96686C23.5348 1.33402 22.5945 0.516357 21.5386 0.206293C20.6084 -0.0687642 19.6178 -0.0687642 18.6851 0.206293C17.6291 0.516357 16.6939 1.33152 14.8183 2.96186L2.74795 13.469C1.73727 14.3492 1.23193 14.7893 0.869891 15.3194C0.547579 15.7907 0.308646 16.3133 0.163419 16.8647C1.49854e-07 17.4849 0 18.155 0 19.4903Z" fill="#77BDFE"/>
<ellipse cx="14.3309" cy="15.4344" rx="1.29032" ry="1.79882" transform="rotate(11.8642 14.3309 15.4344)" fill="#4F3D3D"/>
<ellipse cx="1.29032" cy="1.79882" rx="1.29032" ry="1.79882" transform="matrix(-0.978638 0.205593 0.205593 0.978638 26.3745 13.4087)" fill="#4F3D3D"/>
<path d="M19.7606 17.4973C14.6969 17.4973 12.2029 20.3469 11.5835 21.9576C11.0242 23.8161 13.194 24.0639 14.5569 24.1878C17.1587 24.1878 16.7655 23.3811 22.3625 24.5595C29.4245 26.0462 28.642 22.2508 28.3095 21.5859C27.9377 20.8425 26.0793 17.4973 19.7606 17.4973Z" fill="#4F3D3D" stroke="#4F3D3D" stroke-width="0.743381" stroke-linecap="round"/>
<path d="M27.5664 16.3822C27.8646 17.9524 28.8188 20.8572 30.2501 19.9151C31.6814 18.973 29.0574 17.1673 27.5664 16.3822Z" fill="white" stroke="white" stroke-width="0.619484" stroke-linecap="round"/>
</svg>
