<svg width="80" height="77" viewBox="0 0 80 77" fill="none" xmlns="http://www.w3.org/2000/svg">
<path d="M48.9744 1.893C50.7109 0.0888454 53.763 1.08051 54.1074 3.56079L55.4953 13.5559C55.7293 15.2416 57.3171 16.3952 58.9926 16.0969L68.9274 14.3282C71.3927 13.8893 73.279 16.4855 72.0998 18.6945L67.3476 27.5965C66.5462 29.0978 67.1526 30.9644 68.6834 31.7079L77.7605 36.1165C80.013 37.2105 80.013 40.4196 77.7605 41.5136L68.6834 45.9222C67.1526 46.6657 66.5462 48.5323 67.3476 50.0336L72.0998 58.9356C73.279 61.1446 71.3927 63.7408 68.9274 63.3019L58.9926 61.5332C57.3171 61.2349 55.7293 62.3885 55.4953 64.0742L54.1074 74.0693C53.763 76.5496 50.7109 77.5413 48.9744 75.7371L41.9766 68.4667C40.7965 67.2405 38.8338 67.2405 37.6537 68.4667L30.6559 75.7371C28.9194 77.5413 25.8673 76.5496 25.5229 74.0693L24.135 64.0742C23.901 62.3885 22.3132 61.2349 20.6377 61.5332L10.7029 63.3019C8.2376 63.7408 6.35133 61.1446 7.53057 58.9356L12.2827 50.0336C13.0842 48.5323 12.4777 46.6657 10.9469 45.9222L1.86983 41.5136C-0.382633 40.4196 -0.382636 37.2105 1.86982 36.1165L10.9469 31.7079C12.4777 30.9644 13.0842 29.0978 12.2827 27.5965L7.53057 18.6945C6.35133 16.4855 8.2376 13.8893 10.7029 14.3282L20.6377 16.0969C22.3132 16.3952 23.901 15.2416 24.135 13.5559L25.5229 3.5608C25.8673 1.08052 28.9194 0.088843 30.6559 1.893L37.6537 9.16345C38.8338 10.3896 40.7965 10.3896 41.9766 9.16346L48.9744 1.893Z" fill="#FD6F70"/>
</svg>
