<svg width="29" height="29" viewBox="0 0 29 29" fill="none" xmlns="http://www.w3.org/2000/svg">
<path d="M3.6001 4.5C3.6001 4.2613 3.69492 4.03239 3.8637 3.8636C4.03248 3.69482 4.2614 3.6 4.5001 3.6C4.73879 3.6 4.96771 3.69482 5.13649 3.8636C5.30528 4.03239 5.4001 4.2613 5.4001 4.5V12.0096L9.7801 9.7032C9.91586 9.63187 10.0676 9.59641 10.2209 9.60019C10.3742 9.60397 10.524 9.64686 10.6561 9.7248L15.2401 12.42L21.9601 7.38C22.0938 7.27971 22.2528 7.21865 22.4193 7.20363C22.5857 7.18862 22.7531 7.22027 22.9026 7.29501C23.0521 7.36976 23.1778 7.48466 23.2657 7.62684C23.3536 7.76902 23.4001 7.93286 23.4001 8.1V23.4H24.3001C24.5388 23.4 24.7677 23.4948 24.9365 23.6636C25.1053 23.8324 25.2001 24.0613 25.2001 24.3C25.2001 24.5387 25.1053 24.7676 24.9365 24.9364C24.7677 25.1052 24.5388 25.2 24.3001 25.2H4.5001C4.2614 25.2 4.03248 25.1052 3.8637 24.9364C3.69492 24.7676 3.6001 24.5387 3.6001 24.3V4.5ZM5.4001 14.0436V23.4H21.6001V9.9L15.8401 14.22C15.698 14.3264 15.5277 14.3884 15.3504 14.3982C15.1732 14.408 14.9971 14.3652 14.8441 14.2752L10.1761 11.5308L5.4001 14.0436Z" fill="#4F3D3D"/>
</svg>
