<svg width="66" height="71" viewBox="0 0 66 71" fill="none" xmlns="http://www.w3.org/2000/svg">
<path fill-rule="evenodd" clip-rule="evenodd" d="M58.5399 35.5004C58.8314 35.6398 59.1133 35.7824 59.37 35.9313V35.925C61.5409 37.178 63.2915 39.0466 64.4004 41.2945C65.5092 43.5425 65.9266 46.0687 65.5997 48.5539C65.2728 51.0391 64.2162 53.3714 62.5637 55.2561C60.9112 57.1408 58.7369 58.4931 56.3158 59.142C55.239 59.4308 54.1292 59.5778 53.0144 59.5792C50.7958 59.5789 48.6166 58.9931 46.6969 57.881C46.4403 57.7321 46.1741 57.5579 45.9112 57.3773C45.9365 57.6973 45.9524 58.0141 45.9524 58.3119C45.9524 61.673 44.6172 64.8965 42.2405 67.2731C39.8638 69.6498 36.6404 70.985 33.2793 70.985C29.9182 70.985 26.6947 69.6498 24.3181 67.2731C21.9414 64.8965 20.6062 61.673 20.6062 58.3119C20.6062 58.0109 20.6221 57.6941 20.6474 57.3773C20.3845 57.5642 20.1183 57.7321 19.8617 57.881C18.4199 58.7263 16.8251 59.278 15.1692 59.5044C13.5133 59.7309 11.8289 59.6275 10.2131 59.2003C8.5973 58.7731 7.08195 58.0305 5.7543 57.0153C4.42665 56.0001 3.31293 54.7323 2.47725 53.2849C1.64157 51.8375 1.10044 50.2391 0.885012 48.5817C0.669588 46.9243 0.784123 45.2407 1.22203 43.6278C1.65993 42.0148 2.41254 40.5044 3.43655 39.1835C4.46055 37.8626 5.73572 36.7574 7.18863 35.9313C7.44526 35.7824 7.72723 35.6398 8.01871 35.5004C7.72723 35.361 7.44526 35.2184 7.18863 35.0695C5.73572 34.2435 4.46055 33.1382 3.43655 31.8173C2.41254 30.4964 1.65993 28.986 1.22203 27.3731C0.784123 25.7601 0.669588 24.0765 0.885012 22.4191C1.10044 20.7618 1.64157 19.1634 2.47725 17.716C3.31293 16.2686 4.42665 15.0008 5.7543 13.9855C7.08195 12.9703 8.5973 12.2277 10.2131 11.8005C11.8289 11.3733 13.5133 11.27 15.1692 11.4964C16.8251 11.7228 18.4199 12.2745 19.8617 13.1198C20.1183 13.2687 20.3845 13.443 20.6474 13.6235C20.6062 13.2877 20.6062 12.9709 20.6062 12.6731V12.6731C20.6062 9.31196 21.9414 6.08851 24.3181 3.71185C26.6947 1.33519 29.9182 0 33.2793 0C36.6404 0 39.8638 1.33519 42.2405 3.71185C44.6172 6.08851 45.9524 9.31196 45.9524 12.6731C45.9524 12.9899 45.9365 13.3067 45.9112 13.6235C46.1741 13.4366 46.4403 13.2687 46.6969 13.1198C48.1387 12.2745 49.7335 11.7228 51.3894 11.4964C53.0453 11.27 54.7297 11.3733 56.3455 11.8005C57.9613 12.2277 59.4766 12.9703 60.8043 13.9855C62.1319 15.0008 63.2457 16.2686 64.0813 17.716C64.917 19.1634 65.4582 20.7618 65.6736 22.4191C65.889 24.0765 65.7745 25.7601 65.3366 27.3731C64.8987 28.986 64.146 30.4964 63.122 31.8173C62.098 33.1382 60.8229 34.2435 59.37 35.0695C59.1133 35.2184 58.8314 35.361 58.5399 35.5004Z" fill="#FFD539"/>
</svg>
