<svg width="25" height="25" viewBox="0 0 25 25" fill="none" xmlns="http://www.w3.org/2000/svg">
<path d="M12.5001 2.60413C13.7252 2.60375 14.9182 2.9961 15.9039 3.72357C16.8896 4.45105 17.6162 5.47535 17.977 6.64613C18.3377 7.81691 18.3137 9.0725 17.9084 10.2286C17.5031 11.3847 16.7379 12.3805 15.7251 13.0698C17.4831 13.7145 19.0078 14.8707 20.1031 16.3895C21.1984 17.9082 21.8141 19.72 21.8709 21.5916C21.8762 21.6955 21.8607 21.7994 21.8254 21.8972C21.79 21.9951 21.7354 22.0848 21.6649 22.1613C21.5943 22.2377 21.5092 22.2993 21.4146 22.3425C21.3199 22.3856 21.2176 22.4094 21.1136 22.4124C21.0096 22.4155 20.9061 22.3977 20.8091 22.3602C20.712 22.3227 20.6235 22.2662 20.5486 22.1941C20.4737 22.1219 20.4139 22.0355 20.3729 21.9399C20.3318 21.8443 20.3103 21.7415 20.3095 21.6375C20.2474 19.6077 19.3975 17.6819 17.9399 16.2681C16.4822 14.8543 14.5313 14.0636 12.5006 14.0636C10.4699 14.0636 8.51904 14.8543 7.06137 16.2681C5.6037 17.6819 4.75379 19.6077 4.69176 21.6375C4.68554 21.8447 4.59727 22.0409 4.44636 22.183C4.29545 22.3251 4.09427 22.4015 3.88707 22.3953C3.67987 22.3891 3.48363 22.3008 3.34151 22.1499C3.19939 21.999 3.12304 21.7978 3.12926 21.5906C3.18629 19.7191 3.80207 17.9076 4.89734 16.389C5.99262 14.8705 7.51728 13.7145 9.27509 13.0698C8.26227 12.3805 7.49705 11.3847 7.09176 10.2286C6.68647 9.0725 6.66245 7.81691 7.02323 6.64613C7.384 5.47535 8.11058 4.45105 9.0963 3.72357C10.082 2.9961 11.275 2.60375 12.5001 2.60413ZM8.33342 8.33329C8.33342 9.43836 8.77241 10.4982 9.55381 11.2796C10.3352 12.061 11.395 12.5 12.5001 12.5C13.6052 12.5 14.665 12.061 15.4464 11.2796C16.2278 10.4982 16.6668 9.43836 16.6668 8.33329C16.6668 7.22822 16.2278 6.16842 15.4464 5.38701C14.665 4.60561 13.6052 4.16663 12.5001 4.16663C11.395 4.16663 10.3352 4.60561 9.55381 5.38701C8.77241 6.16842 8.33342 7.22822 8.33342 8.33329Z" fill="#4F3D3D"/>
</svg>
