<svg width="64" height="64" viewBox="0 0 64 64" fill="none" xmlns="http://www.w3.org/2000/svg">
<path d="M0.779297 30.5246V51.4683C0.779297 55.8544 0.779297 58.0474 1.63767 59.7275C2.39367 61.1999 3.59461 62.3983 5.07905 63.1463C6.76036 64 8.96536 64 13.3675 64H51.1911C55.5932 64 57.7943 64 59.4756 63.1463C60.9582 62.3971 62.1642 61.2003 62.9209 59.7275C63.7793 58.0513 63.7793 55.8622 63.7793 51.4839V30.5246C63.7793 28.4333 63.7793 27.3877 63.5234 26.4126C63.2969 25.5506 62.924 24.7335 62.4209 23.9963C61.8499 23.1622 61.0624 22.469 59.4756 21.0944L40.5756 4.64653C37.6382 2.08928 36.1656 0.808689 34.5119 0.323084C33.055 -0.107695 31.5036 -0.107695 30.0428 0.323084C28.389 0.808689 26.9243 2.08536 23.9869 4.6387L5.08298 21.0944C3.50011 22.4729 2.70867 23.1622 2.14167 23.9924C1.63688 24.7305 1.26268 25.5491 1.03523 26.4126C0.779297 27.3838 0.779297 28.4333 0.779297 30.5246Z" fill="#77BDFE"/>
</svg>
